<?xml version="1.0" encoding="UTF-8" standalone="no"?>
<!-- Created with Inkscape (http://www.inkscape.org/) -->

<svg
   xmlns:dc="http://purl.org/dc/elements/1.1/"
   xmlns:cc="http://creativecommons.org/ns#"
   xmlns:rdf="http://www.w3.org/1999/02/22-rdf-syntax-ns#"
   xmlns:svg="http://www.w3.org/2000/svg"
   xmlns="http://www.w3.org/2000/svg"
   xmlns:sodipodi="http://sodipodi.sourceforge.net/DTD/sodipodi-0.dtd"
   xmlns:inkscape="http://www.inkscape.org/namespaces/inkscape"
   id="svg2"
   version="1.1"
   inkscape:version="0.48.4 r9939"
   width="613.75"
   height="287.5"
   xml:space="preserve"
   sodipodi:docname="all-freq-labeled-1.eps"><metadata
     id="metadata8"><rdf:RDF><cc:Work
         rdf:about=""><dc:format>image/svg+xml</dc:format><dc:type
           rdf:resource="http://purl.org/dc/dcmitype/StillImage" /><dc:title></dc:title></cc:Work></rdf:RDF></metadata><defs
     id="defs6" /><sodipodi:namedview
     pagecolor="#ffffff"
     bordercolor="#666666"
     borderopacity="1"
     objecttolerance="10"
     gridtolerance="10"
     guidetolerance="10"
     inkscape:pageopacity="0"
     inkscape:pageshadow="2"
     inkscape:window-width="1366"
     inkscape:window-height="748"
     id="namedview4"
     showgrid="false"
     inkscape:zoom="2"
     inkscape:cx="313.62299"
     inkscape:cy="142.05585"
     inkscape:window-x="-2"
     inkscape:window-y="-3"
     inkscape:window-maximized="1"
     inkscape:current-layer="g10" /><g
     id="g10"
     inkscape:groupmode="layer"
     inkscape:label="ink_ext_XXXXXX"
     transform="matrix(1.25,0,0,-1.25,0,287.5)"><g
       id="g12"
       transform="scale(0.1,0.1)"><path
         d="m 390,200 44,0 m 4300.5,0 -44,0"
         style="fill:none;stroke:#000000;stroke-opacity:1;stroke-width:2.5;stroke-linecap:butt;stroke-linejoin:miter;stroke-miterlimit:3.8;stroke-dasharray:none"
         id="path14" /><g
         id="g16"
         transform="scale(10,10)"><text
           transform="matrix(1,0,0,-1,27,16.6648)"
           id="text18"
           style="-inkscape-font-specification:TeX Gyre Cursor;font-family:TeX Gyre Cursor"><tspan
             style="fill:#000000;fill-opacity:1;fill-rule:nonzero;stroke:none;font-family:TeX Gyre Cursor;font-variant:normal;font-weight:normal;font-size:10;writing-mode:lr;-inkscape-font-specification:TeX Gyre Cursor"
             x="0"
             y="0"
             id="tspan20">0</tspan></text>
</g><path
         d="m 390,515 44,0 m 4300.5,0 -44,0"
         style="fill:none;stroke:#000000;stroke-opacity:1;stroke-width:2.5;stroke-linecap:butt;stroke-linejoin:miter;stroke-miterlimit:3.8;stroke-dasharray:none"
         id="path22" /><g
         id="g24"
         transform="scale(10,10)"><text
           transform="matrix(1,0,0,-1,9,48.1648)"
           id="text26"
           style="-inkscape-font-specification:TeX Gyre Cursor;font-family:TeX Gyre Cursor"><tspan
             style="fill:#000000;fill-opacity:1;fill-rule:nonzero;stroke:none;font-family:TeX Gyre Cursor;font-variant:normal;font-weight:normal;font-size:10;writing-mode:lr;-inkscape-font-specification:TeX Gyre Cursor"
             x="0 6 12 18"
             y="0"
             sodipodi:role="line"
             id="tspan28">1000</tspan></text>
</g><path
         d="m 390,829.5 44,0 m 4300.5,0 -44,0"
         style="fill:none;stroke:#000000;stroke-opacity:1;stroke-width:2.5;stroke-linecap:butt;stroke-linejoin:miter;stroke-miterlimit:3.8;stroke-dasharray:none"
         id="path30" /><g
         id="g32"
         transform="scale(10,10)"><text
           transform="matrix(1,0,0,-1,9,79.6148)"
           id="text34"
           style="-inkscape-font-specification:TeX Gyre Cursor;font-family:TeX Gyre Cursor"><tspan
             style="fill:#000000;fill-opacity:1;fill-rule:nonzero;stroke:none;font-family:TeX Gyre Cursor;font-variant:normal;font-weight:normal;font-size:10;writing-mode:lr;-inkscape-font-specification:TeX Gyre Cursor"
             x="0 6 12 18"
             y="0"
             sodipodi:role="line"
             id="tspan36">2000</tspan></text>
</g><path
         d="m 390,1144.5 44,0 m 4300.5,0 -44,0"
         style="fill:none;stroke:#000000;stroke-opacity:1;stroke-width:2.5;stroke-linecap:butt;stroke-linejoin:miter;stroke-miterlimit:3.8;stroke-dasharray:none"
         id="path38" /><g
         id="g40"
         transform="scale(10,10)"><text
           transform="matrix(1,0,0,-1,9,111.115)"
           id="text42"
           style="-inkscape-font-specification:TeX Gyre Cursor;font-family:TeX Gyre Cursor"><tspan
             style="fill:#000000;fill-opacity:1;fill-rule:nonzero;stroke:none;font-family:TeX Gyre Cursor;font-variant:normal;font-weight:normal;font-size:10;writing-mode:lr;-inkscape-font-specification:TeX Gyre Cursor"
             x="0 6 12 18"
             y="0"
             sodipodi:role="line"
             id="tspan44">3000</tspan></text>
</g><path
         d="m 390,1459.5 44,0 m 4300.5,0 -44,0"
         style="fill:none;stroke:#000000;stroke-opacity:1;stroke-width:2.5;stroke-linecap:butt;stroke-linejoin:miter;stroke-miterlimit:3.8;stroke-dasharray:none"
         id="path46" /><g
         id="g48"
         transform="scale(10,10)"><text
           transform="matrix(1,0,0,-1,9,142.615)"
           id="text50"
           style="-inkscape-font-specification:TeX Gyre Cursor;font-family:TeX Gyre Cursor"><tspan
             style="fill:#000000;fill-opacity:1;fill-rule:nonzero;stroke:none;font-family:TeX Gyre Cursor;font-variant:normal;font-weight:normal;font-size:10;writing-mode:lr;-inkscape-font-specification:TeX Gyre Cursor"
             x="0 6 12 18"
             y="0"
             sodipodi:role="line"
             id="tspan52">4000</tspan></text>
</g><path
         d="m 390,1774 44,0 m 4300.5,0 -44,0"
         style="fill:none;stroke:#000000;stroke-opacity:1;stroke-width:2.5;stroke-linecap:butt;stroke-linejoin:miter;stroke-miterlimit:3.8;stroke-dasharray:none"
         id="path54" /><g
         id="g56"
         transform="scale(10,10)"><text
           transform="matrix(1,0,0,-1,9,174.065)"
           id="text58"
           style="-inkscape-font-specification:TeX Gyre Cursor;font-family:TeX Gyre Cursor"><tspan
             style="fill:#000000;fill-opacity:1;fill-rule:nonzero;stroke:none;font-family:TeX Gyre Cursor;font-variant:normal;font-weight:normal;font-size:10;writing-mode:lr;-inkscape-font-specification:TeX Gyre Cursor"
             x="0 6 12 18"
             y="0"
             sodipodi:role="line"
             id="tspan60">5000</tspan></text>
</g><path
         d="m 390,2089 44,0 m 4300.5,0 -44,0"
         style="fill:none;stroke:#000000;stroke-opacity:1;stroke-width:2.5;stroke-linecap:butt;stroke-linejoin:miter;stroke-miterlimit:3.8;stroke-dasharray:none"
         id="path62" /><g
         id="g64"
         transform="scale(10,10)"><text
           transform="matrix(1,0,0,-1,9,205.565)"
           id="text66"
           style="-inkscape-font-specification:TeX Gyre Cursor;font-family:TeX Gyre Cursor"><tspan
             style="fill:#000000;fill-opacity:1;fill-rule:nonzero;stroke:none;font-family:TeX Gyre Cursor;font-variant:normal;font-weight:normal;font-size:10;writing-mode:lr;-inkscape-font-specification:TeX Gyre Cursor"
             x="0 6 12 18"
             y="0"
             sodipodi:role="line"
             id="tspan68">6000</tspan></text>
</g><path
         d="m 470.5,200 0,44 m 0,1939.5 0,-44"
         style="fill:none;stroke:#000000;stroke-opacity:1;stroke-width:2.5;stroke-linecap:butt;stroke-linejoin:miter;stroke-miterlimit:3.8;stroke-dasharray:none"
         id="path70" /><g
         id="g72"
         transform="scale(10,10)"><text
           transform="matrix(1,0,0,-1,44.05,6.66484)"
           id="text74"
           style="-inkscape-font-specification:TeX Gyre Cursor;font-family:TeX Gyre Cursor"><tspan
             style="fill:#000000;fill-opacity:1;fill-rule:nonzero;stroke:none;font-family:TeX Gyre Cursor;font-variant:normal;font-weight:normal;font-size:10;writing-mode:lr;-inkscape-font-specification:TeX Gyre Cursor"
             x="0"
             y="0"
             id="tspan76">5</tspan></text>
</g><path
         d="m 1277.5,200 0,44 m 0,1939.5 0,-44"
         style="fill:none;stroke:#000000;stroke-opacity:1;stroke-width:2.5;stroke-linecap:butt;stroke-linejoin:miter;stroke-miterlimit:3.8;stroke-dasharray:none"
         id="path78" /><g
         id="g80"
         transform="scale(10,10)"><text
           transform="matrix(1,0,0,-1,121.75,6.66484)"
           id="text82"
           style="-inkscape-font-specification:TeX Gyre Cursor;font-family:TeX Gyre Cursor"><tspan
             style="fill:#000000;fill-opacity:1;fill-rule:nonzero;stroke:none;font-family:TeX Gyre Cursor;font-variant:normal;font-weight:normal;font-size:10;writing-mode:lr;-inkscape-font-specification:TeX Gyre Cursor"
             x="0 6"
             y="0"
             sodipodi:role="line"
             id="tspan84">10</tspan></text>
</g><path
         d="m 2085,200 0,44 m 0,1939.5 0,-44"
         style="fill:none;stroke:#000000;stroke-opacity:1;stroke-width:2.5;stroke-linecap:butt;stroke-linejoin:miter;stroke-miterlimit:3.8;stroke-dasharray:none"
         id="path86" /><g
         id="g88"
         transform="scale(10,10)"><text
           transform="matrix(1,0,0,-1,202.5,6.66484)"
           id="text90"
           style="-inkscape-font-specification:TeX Gyre Cursor;font-family:TeX Gyre Cursor"><tspan
             style="fill:#000000;fill-opacity:1;fill-rule:nonzero;stroke:none;font-family:TeX Gyre Cursor;font-variant:normal;font-weight:normal;font-size:10;writing-mode:lr;-inkscape-font-specification:TeX Gyre Cursor"
             x="0 6"
             y="0"
             sodipodi:role="line"
             id="tspan92">15</tspan></text>
</g><path
         d="m 2892,200 0,44 m 0,1939.5 0,-44"
         style="fill:none;stroke:#000000;stroke-opacity:1;stroke-width:2.5;stroke-linecap:butt;stroke-linejoin:miter;stroke-miterlimit:3.8;stroke-dasharray:none"
         id="path94" /><g
         id="g96"
         transform="scale(10,10)"><text
           transform="matrix(1,0,0,-1,283.2,6.66484)"
           id="text98"
           style="-inkscape-font-specification:TeX Gyre Cursor;font-family:TeX Gyre Cursor"><tspan
             style="fill:#000000;fill-opacity:1;fill-rule:nonzero;stroke:none;font-family:TeX Gyre Cursor;font-variant:normal;font-weight:normal;font-size:10;writing-mode:lr;-inkscape-font-specification:TeX Gyre Cursor"
             x="0 6"
             y="0"
             sodipodi:role="line"
             id="tspan100">20</tspan></text>
</g><path
         d="m 3699,200 0,44 m 0,1939.5 0,-44"
         style="fill:none;stroke:#000000;stroke-opacity:1;stroke-width:2.5;stroke-linecap:butt;stroke-linejoin:miter;stroke-miterlimit:3.8;stroke-dasharray:none"
         id="path102" /><g
         id="g104"
         transform="scale(10,10)"><text
           transform="matrix(1,0,0,-1,363.9,6.66484)"
           id="text106"
           style="-inkscape-font-specification:TeX Gyre Cursor;font-family:TeX Gyre Cursor"><tspan
             style="fill:#000000;fill-opacity:1;fill-rule:nonzero;stroke:none;font-family:TeX Gyre Cursor;font-variant:normal;font-weight:normal;font-size:10;writing-mode:lr;-inkscape-font-specification:TeX Gyre Cursor"
             x="0 6"
             y="0"
             sodipodi:role="line"
             id="tspan108">25</tspan></text>
</g><path
         d="m 4506,200 0,44 m 0,1939.5 0,-44"
         style="fill:none;stroke:#000000;stroke-opacity:1;stroke-width:2.5;stroke-linecap:butt;stroke-linejoin:miter;stroke-miterlimit:3.8;stroke-dasharray:none"
         id="path110" /><g
         id="g112"
         transform="scale(10,10)"><text
           transform="matrix(1,0,0,-1,444.6,6.66484)"
           id="text114"
           style="-inkscape-font-specification:TeX Gyre Cursor;font-family:TeX Gyre Cursor"><tspan
             style="fill:#000000;fill-opacity:1;fill-rule:nonzero;stroke:none;font-family:TeX Gyre Cursor;font-variant:normal;font-weight:normal;font-size:10;writing-mode:lr;-inkscape-font-specification:TeX Gyre Cursor"
             x="0 6"
             y="0"
             sodipodi:role="line"
             id="tspan116">30</tspan></text>
</g><path
         d="m 390,200 4344.5,0 0,1983.5 -4344.5,0 0,-1983.5 z"
         style="fill:none;stroke:#000000;stroke-opacity:1;stroke-width:2.5;stroke-linecap:butt;stroke-linejoin:miter;stroke-miterlimit:3.8;stroke-dasharray:none"
         id="path118" /><path
         d="m 390,243 6.5,35.5 7,7 6.5,23.5 7,-14 6.5,6 7,5.5 6.5,-5 7,-10.5 6.5,21.5 7,-25 6.5,17.5 6.5,-16.5 7,53 6.5,-41 7,-12.5 6.5,-17.5 7,22.5 6.5,-44 7,1033 6.5,854 6.5,-1856.5 7,-35.5 6.5,13 7,16.5 6.5,-3.5 7,11.5 6.5,27.5 7,38.5 6.5,-50 7,9 6.5,-6 6.5,-5 7,36.5 6.5,-34 7,4.5 6.5,-11 7,19.5 6.5,2 7,-19.5 6.5,14.5 6.5,-14 7,-33 6.5,-12.5 7,-2.5 6.5,-7 7,5 6.5,13.5 7,15.5 6.5,5 7,15.5 6.5,2 6.5,13.5 7,13 6.5,11.5 7,-11.5 6.5,-7 7,34.5 6.5,-4.5 7,-26 6.5,17.5 6.5,41 7,-68.5 6.5,120 7,-110.5 6.5,-22.5 7,-25 6.5,-7.5 7,-15.5 6.5,-5.5 7,3.5 6.5,6.5 6.5,13 7,28 6.5,6 7,-6.5 6.5,15 7,6.5 6.5,-3.5 7,7.5 6.5,1 6.5,9.5 7,-34 6.5,32 7,-21.5 6.5,23.5 7,-47 6.5,14 7,-9 6.5,18.5 7,-33.5 6.5,-12 6.5,-16 7,1.5 6.5,-1.5 7,9 6.5,10.5 7,2 6.5,18.5 7,-2.5 6.5,16 6.5,1 7,3 6.5,-6.5 7,7.5 6.5,11 7,7.5 6.5,-35 7,43.5 6.5,8.5 7,-6.5 6.5,-33 6.5,15 7,-26.5 6.5,-13.5 7,-20 6.5,1.5 7,-8 6.5,-5.5 7,5 6.5,2.5 7,14.5 6.5,6.5 6.5,13.5 7,10.5 6.5,-6"
         style="fill:none;stroke:#000000;stroke-opacity:1;stroke-width:5;stroke-linecap:butt;stroke-linejoin:miter;stroke-miterlimit:3.8;stroke-dasharray:none"
         id="path120" /><path
         d="m 1230.5,288 7,46.5 6.5,-34 7,-5.5 6.5,22 7,-1 6.5,-13.5 6.5,35 7,-20.5 6.5,-19.5 7,-7.5 6.5,-3 7,-18.5 6.5,-11 7,-5 6.5,-6 7,0 6.5,-1 6.5,7 7,14 6.5,4.5 7,17 6.5,6 7,1 6.5,-1.5 7,1.5 6.5,10.5 6.5,-10 7,49.5 6.5,-19 7,-22.5 6.5,1.5 7,19 6.5,-10.5 7,22.5 6.5,-46.5 7,-22.5 6.5,-20 6.5,-1 7,-6 6.5,-1.5 7,9.5 6.5,-1.5 7,13.5 6.5,8.5 7,17 6.5,17 6.5,-1 7,2 6.5,-14.5 7,22 6.5,-11.5 7,36.5 6.5,-33.5 7,1 6.5,21 7,-0.5 6.5,9 6.5,122 7,-159 6.5,-6.5 7,-26 6.5,-23 7,-1 6.5,3 7,-7 6.5,15.5 6.5,14 7,-1.5 6.5,26 7,1 6.5,22.5 7,-12 6.5,1.5 7,-9.5 6.5,5 7,35 6.5,13.5 6.5,-55 7,23.5 6.5,7 7,-24.5 6.5,-8 7,-11 6.5,-11 7,-6 6.5,-10 6.5,-1 7,4 6.5,-3 7,-1 6.5,12 7,0 6.5,29 7,6 6.5,13 7,-8.5 6.5,2 6.5,-10 7,19.5 6.5,24 7,-38.5 6.5,13.5 7,-15 6.5,47.5"
         style="fill:none;stroke:#000000;stroke-opacity:1;stroke-width:5;stroke-linecap:butt;stroke-linejoin:miter;stroke-miterlimit:3.8;stroke-dasharray:none"
         id="path122" /><path
         d="m 1930,345 7,-14.5 6.5,-31 7,-6 6.5,-15 6.5,-19.5 7,-9.5 6.5,-15.5 7,4.5 6.5,1.5 7,11.5 6.5,2.5 7,23 6.5,20.5 6.5,0 7,-2 6.5,11 7,-15 6.5,19 7,-10.5 6.5,19.5 7,6 6.5,-37 7,34 6.5,-23 6.5,9.5 7,-27.5 6.5,10.5 7,-4 6.5,-20.5 7,-25.5 6.5,-0.5 7,-3 6.5,-0.5 6.5,10 7,1 6.5,12.5 7,14.5 6.5,8 7,3.5 6.5,19.5 7,8 6.5,6 7,17 6.5,32 6.5,-38.5 7,5 6.5,10 7,5.5 6.5,-37 7,20.5 6.5,-12 7,-19.5 6.5,-31.5 6.5,-3 7,-11 6.5,6.5 7,0 6.5,1.5 7,6.5 6.5,-0.5 7,4 6.5,15 7,15 6.5,-3 6.5,-3.5 7,11.5 6.5,-6.5 7,40.5 6.5,-33 7,40 6.5,-21 7,50 6.5,179.5 6.5,-154 7,-88.5 6.5,-11.5 7,-25 6.5,-9 7,-15 6.5,-19 7,4.5 6.5,1.5 7,31.5 6.5,32 6.5,7.5 7,-3 6.5,6.5 7,7.5 6.5,4 7,-32 6.5,9.5 7,74 6.5,-44.5 6.5,-5 7,14.5 6.5,-28.5 7,32 6.5,-27.5 7,-12.5 6.5,-15.5 7,-11 6.5,-1 7,-11.5 6.5,-1"
         style="fill:none;stroke:#000000;stroke-opacity:1;stroke-width:5;stroke-linecap:butt;stroke-linejoin:miter;stroke-miterlimit:3.8;stroke-dasharray:none"
         id="path124" /><path
         d="m 2629.5,271 6.5,-2.5 7,2.5 6.5,-6 7,10 6.5,14 7,7.5 6.5,-7.5 7,26 6.5,11 7,9 6.5,-12 6.5,2.5 7,14.5 6.5,-22.5 7,36 6.5,-4 7,7.5 6.5,91 7,-71.5 6.5,-60.5 6.5,-33 7,-17.5 6.5,-3 7,0 6.5,-21.5 7,4.5 6.5,22 7,21 6.5,20 7,36 6.5,-21 6.5,-10 7,-1.5 6.5,6 7,-3.5 6.5,25 7,-27.5 6.5,-6 7,33 6.5,-33 6.5,32.5 7,10 6.5,-40 7,2 6.5,-41 7,-23.5 6.5,-6.5 7,6 6.5,-5.5 7,5.5 6.5,6 6.5,13 7,19 6.5,5 7,15 6.5,-13 7,13 6.5,-13 7,4 6.5,34 6.5,-8.5 7,-11 6.5,25 7,50 6.5,-19 7,-5.5 6.5,-26.5 7,-18.5 6.5,-22.5 7,-11 6.5,-30.5 6.5,-11.5 7,-3.5 6.5,9 7,12 6.5,19.5 7,16.5 6.5,2.5 7,1.5 6.5,1 6.5,23 7,-21.5 6.5,10 7,19 6.5,-29.5 7,-9.5 6.5,41.5 7,-30.5 6.5,9 7,9 6.5,-38.5 6.5,7 7,-31.5 6.5,-10.5 7,-11 6.5,3 7,11.5 6.5,-8 7,6.5 6.5,10.5 7,21 6.5,-4.5 6.5,3.5 7,8"
         style="fill:none;stroke:#000000;stroke-opacity:1;stroke-width:5;stroke-linecap:butt;stroke-linejoin:miter;stroke-miterlimit:3.8;stroke-dasharray:none"
         id="path126" /><path
         d="m 3329,285 6.5,3 7,11 6.5,11 7,-20.5 6.5,30 7,-11 6.5,7.5 6.5,-14.5 7,-8 6.5,12.5 7,-19 6.5,-7 7,-22 6.5,-9 7,-9.5 6.5,-7 7,-1.5 6.5,4.5 6.5,36.5 7,-1.5 6.5,-3 7,7.5 6.5,1 7,11 6.5,18 7,-5 6.5,184.5 6.5,56 7,6.5 6.5,-77 7,29 6.5,14.5 7,-3.5 6.5,1.5 7,98 6.5,134.5 7,18 6.5,-23.5 6.5,-487.5 7,-11.5 6.5,3 7,10.5 6.5,14 7,21 6.5,31.5 7,8 6.5,-9 6.5,-1.5 7,40.5 6.5,-29.5 7,9 6.5,-16 7,6.5 6.5,14 7,-2 6.5,-18 7,12.5 6.5,17.5 6.5,-58 7,-15 6.5,-25.5 7,-10.5 6.5,-8 7,3.5 6.5,-2 7,13.5 6.5,14 6.5,26 7,33.5 6.5,21 7,-3.5 6.5,13.5 7,-5.5 6.5,8 7,24 6.5,-19.5 7,-0.5 6.5,93.5 6.5,-35 7,50 6.5,351 7,209 6.5,9 7,867.5 6.5,-924.5 7,-140.5 6.5,-363 6.5,-125.5 7,-19 6.5,47 7,58 6.5,5.5 7,-4 6.5,24.5 7,-48.5 6.5,-9.5 7,-16 6.5,-24.5 6.5,12 7,70.5 6.5,-23.5 7,38 6.5,105.5 7,-168.5"
         style="fill:none;stroke:#000000;stroke-opacity:1;stroke-width:5;stroke-linecap:butt;stroke-linejoin:miter;stroke-miterlimit:3.8;stroke-dasharray:none"
         id="path128" /><path
         d="m 4028.5,399.5 6.5,-0.5 7,-41.5 6.5,-3 7,-8.5 6.5,9.5 6.5,-26 7,-66 6.5,26.5 7,-29 6.5,17.5 7,37.5 6.5,23.5 7,11 6.5,-13 6.5,19 7,26 6.5,-23 7,-52 6.5,39 7,20.5 6.5,-18.5 7,2.5 6.5,-4.5 7,17 6.5,-18.5 6.5,-31 7,-9 6.5,-13 7,-33 6.5,-7 7,-5.5 6.5,-3 7,16.5 6.5,-8.5 6.5,28.5 7,9 6.5,31.5 7,6 6.5,11.5 7,2 6.5,-13.5 7,6.5 6.5,2 7,10 6.5,31 6.5,-55.5 7,-3.5 6.5,19.5 7,-13 6.5,-21 7,-14 6.5,-4 7,-12.5 6.5,-31 6.5,1 7,-5.5 6.5,0.5 7,6 6.5,15 7,14 6.5,0 7,24.5 6.5,10 7,8 6.5,-13 6.5,20.5 7,5 6.5,34 7,-6.5 6.5,-17.5 7,3 6.5,-19.5 7,-6 6.5,17 6.5,-11.5 7,-48 6.5,4 7,-8.5 6.5,-17.5 7,-10 6.5,-3 7,3.5 6.5,9.5 7,14.5 6.5,20 6.5,3 7,9 6.5,-3.5 7,13.5 6.5,5.5 7,1.5 6.5,16 7,-19 6.5,11.5 6.5,-23 7,39 6.5,-34 7,29 6.5,-37.5 7,-8.5 6.5,-30 7,-13 6.5,0.5 7,-3.5"
         style="fill:none;stroke:#000000;stroke-opacity:1;stroke-width:5;stroke-linecap:butt;stroke-linejoin:miter;stroke-miterlimit:3.8;stroke-dasharray:none"
         id="path130" /><path
         d="m 4728,241 6.5,-2"
         style="fill:none;stroke:#000000;stroke-opacity:1;stroke-width:5;stroke-linecap:butt;stroke-linejoin:miter;stroke-miterlimit:3.8;stroke-dasharray:none"
         id="path132" /></g><text
       xml:space="preserve"
       style="font-size:11.19999981px;font-style:normal;font-weight:normal;line-height:125%;letter-spacing:0px;word-spacing:0px;fill:#000000;fill-opacity:1;stroke:none;font-family:Sans"
       x="59.200001"
       y="-204"
       id="text3113"
       sodipodi:linespacing="125%"
       transform="scale(1,-1)"><tspan
         sodipodi:role="line"
         id="tspan3115"
         x="59.200001"
         y="-204">1</tspan></text>
<text
       xml:space="preserve"
       style="font-size:11.19999981px;font-style:normal;font-weight:normal;line-height:125%;letter-spacing:0px;word-spacing:0px;fill:#000000;fill-opacity:1;stroke:none;font-family:Sans"
       x="386"
       y="-194.8"
       id="text3117"
       sodipodi:linespacing="125%"
       transform="scale(1,-1)"><tspan
         sodipodi:role="line"
         id="tspan3119"
         x="386"
         y="-194.8">2</tspan></text>
<text
       xml:space="preserve"
       style="font-size:11.19999981px;font-style:normal;font-weight:normal;line-height:125%;letter-spacing:0px;word-spacing:0px;fill:#000000;fill-opacity:1;stroke:none;font-family:Sans"
       x="353.60001"
       y="-80.400002"
       id="text3121"
       sodipodi:linespacing="125%"
       transform="scale(1,-1)"><tspan
         sodipodi:role="line"
         id="tspan3123"
         x="353.60001"
         y="-80.400002">3</tspan></text>
<text
       xml:space="preserve"
       style="font-size:11.19999981px;font-style:normal;font-weight:normal;line-height:125%;letter-spacing:0px;word-spacing:0px;fill:#000000;fill-opacity:1;stroke:none;font-family:Sans"
       x="398.39999"
       y="-59.599998"
       id="text3125"
       sodipodi:linespacing="125%"
       transform="scale(1,-1)"><tspan
         sodipodi:role="line"
         id="tspan3127"
         x="398.39999"
         y="-59.599998">4</tspan></text>
<text
       xml:space="preserve"
       style="font-size:11.19999981px;font-style:normal;font-weight:normal;line-height:125%;letter-spacing:0px;word-spacing:0px;fill:#000000;fill-opacity:1;stroke:none;font-family:Sans"
       x="238.8"
       y="-60"
       id="text3129"
       sodipodi:linespacing="125%"
       transform="scale(1,-1)"><tspan
         sodipodi:role="line"
         id="tspan3131"
         x="238.8"
         y="-60">5</tspan></text>
<text
       xml:space="preserve"
       style="font-size:11.19999981px;font-style:normal;font-weight:normal;line-height:125%;letter-spacing:0px;word-spacing:0px;fill:#000000;fill-opacity:1;stroke:none;font-family:Sans"
       x="347.19998"
       y="-58"
       id="text3133"
       sodipodi:linespacing="125%"
       transform="scale(1,-1)"><tspan
         sodipodi:role="line"
         id="tspan3135"
         x="347.19998"
         y="-58">6</tspan></text>
</g></svg>