<?xml version="1.0" encoding="utf-8" ?>
<!DOCTYPE svg PUBLIC "-//W3C//DTD SVG 1.1//EN" "http://www.w3.org/Graphics/SVG/1.1/DTD/svg11.dtd">
<svg height="476" version="1.1" width="652" xmlns="http://www.w3.org/2000/svg">
<rect fill="#ffffff" height="80" stroke="#ffffff" stroke-width="1" width="112" x="166" y="262"/>
<rect fill="none" height="80" stroke="#000000" stroke-width="1" width="112" x="166" y="262"/>
<text font-family="Dialog" font-size="12" x="198" y="294">
ICorpus</text>
<text font-family="Dialog" font-size="12" x="174" y="276">
&lt;&lt;interface&gt;&gt;</text>
<rect fill="#000000" height="1" stroke="#000000" stroke-width="1" width="112" x="166" y="304"/>
<rect fill="#ffffff" height="64" stroke="#ffffff" stroke-width="1" width="101" x="158" y="134"/>
<rect fill="none" height="64" stroke="#000000" stroke-width="1" width="101" x="158" y="134"/>
<text font-family="Dialog" font-size="12" x="192" y="166">
IData</text>
<text font-family="Dialog" font-size="12" x="161" y="148">
&lt;&lt;interface&gt;&gt;</text>
<rect fill="#000000" height="1" stroke="#000000" stroke-width="1" width="101" x="158" y="176"/>
<rect fill="#ffffff" height="64" stroke="#ffffff" stroke-width="1" width="104" x="342" y="158"/>
<rect fill="none" height="64" stroke="#000000" stroke-width="1" width="104" x="342" y="158"/>
<text font-family="Dialog" font-size="12" x="377" y="190">
IDate</text>
<text font-family="Dialog" font-size="12" x="346" y="172">
&lt;&lt;interface&gt;&gt;</text>
<rect fill="#000000" height="1" stroke="#000000" stroke-width="1" width="104" x="342" y="200"/>
<rect fill="#ffffff" height="64" stroke="#ffffff" stroke-width="1" width="104" x="342" y="270"/>
<rect fill="none" height="64" stroke="#000000" stroke-width="1" width="104" x="342" y="270"/>
<text font-family="Dialog" font-size="12" x="360" y="302">
IDocument</text>
<text font-family="Dialog" font-size="12" x="346" y="284">
&lt;&lt;interface&gt;&gt;</text>
<rect fill="#000000" height="1" stroke="#000000" stroke-width="1" width="104" x="342" y="312"/>
<rect fill="#ffffff" height="75" stroke="#ffffff" stroke-width="1" width="104" x="14" y="150"/>
<rect fill="none" height="75" stroke="#000000" stroke-width="1" width="104" x="14" y="150"/>
<text font-family="Dialog" font-size="12" x="21" y="182">
IPeakDetector</text>
<text font-family="Dialog" font-size="12" x="18" y="164">
&lt;&lt;interface&gt;&gt;</text>
<rect fill="#000000" height="1" stroke="#000000" stroke-width="1" width="104" x="14" y="192"/>
<text font-family="Dialog" font-size="12" x="18" y="206">
detectPeaks()</text>
<polyline fill="none" points="277,286 342,286" stroke="#000000" stroke-width="1"/>
<text font-family="Dialog" font-size="12" x="288" y="281">
1</text>
<text font-family="Dialog" font-size="12" x="316" y="281">
0..*</text>
<polyline fill="none" points="197,262 197,197" stroke="#000000" stroke-width="1"/>
<polygon fill="#ffffff" points="197,197 204,209 190,209" stroke="#ffffff" stroke-width="1"/>
<polygon fill="none" points="197,197 204,209 190,209" stroke="#000000" stroke-width="1"/>
<polyline fill="none" points="413,270 413,221" stroke="#000000" stroke-width="1"/>
<text font-family="Dialog" font-size="12" x="427" y="266">
1</text>
<text font-family="Dialog" font-size="12" x="427" y="239">
1</text>
<rect fill="#ffffff" height="80" stroke="#ffffff" stroke-width="1" width="112" x="166" y="382"/>
<rect fill="none" height="80" stroke="#000000" stroke-width="1" width="112" x="166" y="382"/>
<text font-family="Dialog" font-size="12" x="200" y="395">
Corpus</text>
<rect fill="#000000" height="1" stroke="#000000" stroke-width="1" width="112" x="166" y="405"/>
<rect fill="#000000" height="1" stroke="#000000" stroke-width="1" width="112" x="166" y="433"/>
<rect fill="#ffffff" height="80" stroke="#ffffff" stroke-width="1" width="112" x="294" y="382"/>
<rect fill="none" height="80" stroke="#000000" stroke-width="1" width="112" x="294" y="382"/>
<text font-family="Dialog" font-size="12" x="318" y="395">
Document</text>
<rect fill="#000000" height="1" stroke="#000000" stroke-width="1" width="112" x="294" y="405"/>
<rect fill="#000000" height="1" stroke="#000000" stroke-width="1" width="112" x="294" y="433"/>
<line fill="#000000" stroke="#000000" stroke-width="1" x1="366" x2="366" y1="382" y2="377"/>
<line fill="#000000" stroke="#000000" stroke-width="1" x1="366" x2="366" y1="372" y2="367"/>
<line fill="#000000" stroke="#000000" stroke-width="1" x1="366" x2="366" y1="362" y2="357"/>
<line fill="#000000" stroke="#000000" stroke-width="1" x1="366" x2="366" y1="352" y2="347"/>
<line fill="#000000" stroke="#000000" stroke-width="1" x1="366" x2="366" y1="342" y2="337"/>
<polygon fill="#ffffff" points="366,333 373,345 359,345" stroke="#ffffff" stroke-width="1"/>
<polygon fill="none" points="366,333 373,345 359,345" stroke="#000000" stroke-width="1"/>
<text font-family="Dialog" font-size="12" x="279" y="370">
&lt;&lt;realize&gt;&gt;</text>
<line fill="#000000" stroke="#000000" stroke-width="1" x1="230" x2="230" y1="382" y2="377"/>
<line fill="#000000" stroke="#000000" stroke-width="1" x1="230" x2="230" y1="372" y2="367"/>
<line fill="#000000" stroke="#000000" stroke-width="1" x1="230" x2="230" y1="362" y2="357"/>
<line fill="#000000" stroke="#000000" stroke-width="1" x1="230" x2="230" y1="352" y2="347"/>
<line fill="#000000" stroke="#000000" stroke-width="1" x1="230" x2="230" y1="342" y2="341"/>
<polygon fill="#ffffff" points="230,341 237,353 223,353" stroke="#ffffff" stroke-width="1"/>
<polygon fill="none" points="230,341 237,353 223,353" stroke="#000000" stroke-width="1"/>
<text font-family="Dialog" font-size="12" x="138" y="371">
&lt;&lt;realize&gt;&gt;</text>
<rect fill="#ffffff" height="88" stroke="#ffffff" stroke-width="1" width="168" x="158" y="14"/>
<rect fill="none" height="88" stroke="#000000" stroke-width="1" width="168" x="158" y="14"/>
<text font-family="Dialog" font-size="12" x="187" y="27">
MaxPeakDetector</text>
<rect fill="#000000" height="1" stroke="#000000" stroke-width="1" width="168" x="158" y="37"/>
<rect fill="#000000" height="1" stroke="#000000" stroke-width="1" width="168" x="158" y="67"/>
<text font-family="Dialog" font-size="12" x="162" y="81">
detectPeaks()</text>
<rect fill="#ffffff" height="106" stroke="#ffffff" stroke-width="1" width="151" x="486" y="198"/>
<rect fill="none" height="106" stroke="#000000" stroke-width="1" width="151" x="486" y="198"/>
<text font-family="Dialog" font-size="12" x="500" y="211">
FrequencyOverTime</text>
<rect fill="#000000" height="1" stroke="#000000" stroke-width="1" width="151" x="486" y="221"/>
<rect fill="#000000" height="1" stroke="#000000" stroke-width="1" width="151" x="486" y="244"/>
<text font-family="Dialog" font-size="12" x="490" y="258">
getMean()</text>
<text font-family="Dialog" font-size="12" x="490" y="274">
getSD()</text>
<text font-family="Dialog" font-size="12" x="490" y="290">
normalizedDotProduct()</text>
<rect fill="#ffffff" height="104" stroke="#ffffff" stroke-width="1" width="152" x="486" y="334"/>
<rect fill="none" height="104" stroke="#000000" stroke-width="1" width="152" x="486" y="334"/>
<text font-family="Dialog" font-size="12" x="496" y="347">
FrequencyOverWords</text>
<rect fill="#000000" height="1" stroke="#000000" stroke-width="1" width="152" x="486" y="357"/>
<rect fill="#000000" height="1" stroke="#000000" stroke-width="1" width="152" x="486" y="395"/>
<text font-family="Dialog" font-size="12" x="490" y="409">
getTopWords()</text>
<line fill="#000000" stroke="#000000" stroke-width="1" x1="486" x2="481" y1="406" y2="406"/>
<line fill="#000000" stroke="#000000" stroke-width="1" x1="476" x2="471" y1="406" y2="406"/>
<line fill="#000000" stroke="#000000" stroke-width="1" x1="466" x2="461" y1="406" y2="406"/>
<line fill="#000000" stroke="#000000" stroke-width="1" x1="456" x2="451" y1="406" y2="406"/>
<line fill="#000000" stroke="#000000" stroke-width="1" x1="446" x2="441" y1="406" y2="406"/>
<line fill="#000000" stroke="#000000" stroke-width="1" x1="436" x2="431" y1="406" y2="406"/>
<line fill="#000000" stroke="#000000" stroke-width="1" x1="430" x2="430" y1="406" y2="401"/>
<line fill="#000000" stroke="#000000" stroke-width="1" x1="430" x2="430" y1="396" y2="391"/>
<line fill="#000000" stroke="#000000" stroke-width="1" x1="430" x2="430" y1="386" y2="381"/>
<line fill="#000000" stroke="#000000" stroke-width="1" x1="430" x2="430" y1="376" y2="371"/>
<line fill="#000000" stroke="#000000" stroke-width="1" x1="430" x2="430" y1="366" y2="361"/>
<line fill="#000000" stroke="#000000" stroke-width="1" x1="430" x2="430" y1="356" y2="351"/>
<line fill="#000000" stroke="#000000" stroke-width="1" x1="430" x2="430" y1="346" y2="341"/>
<line fill="#000000" stroke="#000000" stroke-width="1" x1="430" x2="430" y1="336" y2="333"/>
<line fill="#000000" stroke="#000000" stroke-width="1" x1="437" x2="430" y1="345" y2="333"/>
<line fill="#000000" stroke="#000000" stroke-width="1" x1="423" x2="430" y1="345" y2="333"/>
<line fill="#000000" stroke="#000000" stroke-width="1" x1="486" x2="481" y1="302" y2="302"/>
<line fill="#000000" stroke="#000000" stroke-width="1" x1="476" x2="471" y1="302" y2="302"/>
<line fill="#000000" stroke="#000000" stroke-width="1" x1="466" x2="461" y1="302" y2="302"/>
<line fill="#000000" stroke="#000000" stroke-width="1" x1="456" x2="451" y1="302" y2="302"/>
<line fill="#000000" stroke="#000000" stroke-width="1" x1="446" x2="445" y1="302" y2="302"/>
<line fill="#000000" stroke="#000000" stroke-width="1" x1="457" x2="445" y1="295" y2="302"/>
<line fill="#000000" stroke="#000000" stroke-width="1" x1="457" x2="445" y1="309" y2="302"/>
<rect fill="#ffffff" height="80" stroke="#ffffff" stroke-width="1" width="104" x="14" y="262"/>
<rect fill="none" height="80" stroke="#000000" stroke-width="1" width="104" x="14" y="262"/>
<text font-family="Dialog" font-size="12" x="35" y="275">
NedModel</text>
<rect fill="#000000" height="1" stroke="#000000" stroke-width="1" width="104" x="14" y="285"/>
<rect fill="#000000" height="1" stroke="#000000" stroke-width="1" width="104" x="14" y="311"/>
<text font-family="Dialog" font-size="12" x="18" y="325">
run()</text>
<line fill="#000000" stroke="#000000" stroke-width="1" x1="158" x2="153" y1="94" y2="94"/>
<line fill="#000000" stroke="#000000" stroke-width="1" x1="148" x2="143" y1="94" y2="94"/>
<line fill="#000000" stroke="#000000" stroke-width="1" x1="138" x2="133" y1="94" y2="94"/>
<line fill="#000000" stroke="#000000" stroke-width="1" x1="128" x2="123" y1="94" y2="94"/>
<line fill="#000000" stroke="#000000" stroke-width="1" x1="118" x2="113" y1="94" y2="94"/>
<line fill="#000000" stroke="#000000" stroke-width="1" x1="108" x2="103" y1="94" y2="94"/>
<line fill="#000000" stroke="#000000" stroke-width="1" x1="98" x2="93" y1="94" y2="94"/>
<line fill="#000000" stroke="#000000" stroke-width="1" x1="88" x2="83" y1="94" y2="94"/>
<line fill="#000000" stroke="#000000" stroke-width="1" x1="78" x2="73" y1="94" y2="94"/>
<line fill="#000000" stroke="#000000" stroke-width="1" x1="68" x2="63" y1="94" y2="94"/>
<line fill="#000000" stroke="#000000" stroke-width="1" x1="62" x2="62" y1="94" y2="99"/>
<line fill="#000000" stroke="#000000" stroke-width="1" x1="62" x2="62" y1="104" y2="109"/>
<line fill="#000000" stroke="#000000" stroke-width="1" x1="62" x2="62" y1="114" y2="119"/>
<line fill="#000000" stroke="#000000" stroke-width="1" x1="62" x2="62" y1="124" y2="129"/>
<line fill="#000000" stroke="#000000" stroke-width="1" x1="62" x2="62" y1="134" y2="139"/>
<line fill="#000000" stroke="#000000" stroke-width="1" x1="62" x2="62" y1="144" y2="149"/>
<polygon fill="#ffffff" points="62,150 55,138 69,138" stroke="#ffffff" stroke-width="1"/>
<polygon fill="none" points="62,150 55,138 69,138" stroke="#000000" stroke-width="1"/>
<text font-family="Dialog" font-size="12" x="48" y="66">
&lt;&lt;realize&gt;&gt;</text>
<rect fill="#ffffff" height="98" stroke="#ffffff" stroke-width="1" width="144" x="350" y="14"/>
<rect fill="none" height="98" stroke="#000000" stroke-width="1" width="144" x="350" y="14"/>
<text font-family="Dialog" font-size="12" x="366" y="27">
HDPGibbsSampler</text>
<rect fill="#000000" height="1" stroke="#000000" stroke-width="1" width="144" x="350" y="37"/>
<rect fill="#000000" height="1" stroke="#000000" stroke-width="1" width="144" x="350" y="64"/>
<text font-family="Dialog" font-size="12" x="354" y="78">
run()</text>
<text font-family="Dialog" font-size="12" x="354" y="94">
getTopTopicWords()</text>
<polyline fill="none" points="358,111 358,142 270,142 270,262" stroke="#000000" stroke-width="1"/>
<text font-family="Dialog" font-size="12" x="336" y="131">
1</text>
<text font-family="Dialog" font-size="12" x="283" y="245">
1</text>
<polyline fill="none" points="166,294 117,294" stroke="#000000" stroke-width="1"/>
<text font-family="Dialog" font-size="12" x="151" y="289">
1</text>
<text font-family="Dialog" font-size="12" x="128" y="289">
1</text>
</svg>
